<svg width="180" height="180" viewBox="0 0 180 180" fill="none" xmlns="http://www.w3.org/2000/svg">
<rect width="180" height="180" rx="60" fill="#00CEB5"/>
<path d="M89.0348 47C106.144 47 118.749 50.9384 126.849 58.8151C134.95 66.6918 139 77.4086 139 90.9657C139 104.447 134.95 114.823 126.849 122.094C118.749 129.365 106.144 133 89.0348 133C78.5875 133 68.9351 131.182 60.0776 127.547C51.2202 123.911 44.8988 117.512 41.1136 108.347C50.8038 104.182 58.7528 100.433 64.9606 97.1004C66.7018 101.645 69.4272 104.977 73.1367 107.098C76.8463 109.143 81.8428 110.165 88.1263 110.165C94.107 110.165 99.1035 109.256 103.116 107.439C107.204 105.545 110.119 102.819 111.86 99.2589H71.8876V80.1731H111.178C109.437 76.9163 106.75 74.3791 103.116 72.5614C99.5577 70.668 95.129 69.7213 89.8297 69.7213C84.9088 69.7213 80.0637 70.7437 75.2943 72.7886C70.6006 74.8336 67.156 77.9767 64.9606 82.218C55.8003 77.5222 47.8134 74.0004 41 71.6526C49.1004 55.2175 65.112 47 89.0348 47Z" fill="white"/>
</svg>
